<!DOCTYPE svg PUBLIC "-//W3C//DTD SVG 1.1//EN" "http://www.w3.org/Graphics/SVG/1.1/DTD/svg11.dtd">
<!-- Uploaded to: SVG Repo, www.svgrepo.com, Transformed by: SVG Repo Mixer Tools -->
<svg version="1.1" id="Layer_1" xmlns="http://www.w3.org/2000/svg" xmlns:xlink="http://www.w3.org/1999/xlink" viewBox="0 0 392.663 392.663" xml:space="preserve" width="800px" height="800px" fill="#000000" transform="rotate(-45)">
<g id="SVGRepo_bgCarrier" stroke-width="0"/>
<g id="SVGRepo_tracerCarrier" stroke-linecap="round" stroke-linejoin="round"/>
<g id="SVGRepo_iconCarrier"> <path style="fill:#FFFFFF;" d="M31.483,166.044c-5.301,0-9.632,4.331-9.632,9.632v41.051c0,5.301,4.331,9.632,9.632,9.632 s9.632-4.331,9.632-9.632v-41.051C41.115,170.376,36.784,166.044,31.483,166.044z"/> <path style="fill:#56ACE0;" d="M72.663,129.778c-5.301,0-9.632,4.331-9.632,9.632v113.519c0,5.301,4.331,9.632,9.632,9.632 c5.301,0,9.632-4.331,9.632-9.632v-113.39C82.295,134.174,77.964,129.778,72.663,129.778z"/> <path style="fill:#FFFFFF;" d="M360.921,166.044c-5.301,0-9.632,4.331-9.632,9.632v41.051c0,5.301,4.331,9.632,9.632,9.632 s9.632-4.331,9.632-9.632v-41.051C370.683,170.376,366.352,166.044,360.921,166.044z"/> <path style="fill:#56ACE0;" d="M319.741,129.778c-5.301,0-9.632,4.331-9.632,9.632v113.519c0,5.301,4.331,9.632,9.632,9.632 s9.632-4.331,9.632-9.632v-113.39C329.503,134.174,325.107,129.778,319.741,129.778z"/> <rect x="104.081" y="186.602" style="fill:#FFC10D;" width="184.113" height="19.394"/> <path style="fill:#194F82;" d="M360.921,144.259c-3.426,0-6.659,0.517-9.632,1.552v-6.271c0-17.39-14.158-31.547-31.547-31.547 c-17.39,0-31.547,14.158-31.547,31.547v25.277H104.081v-25.277c0-17.39-14.158-31.547-31.547-31.547s-31.483,14.158-31.483,31.547 v6.271c-3.103-1.034-6.335-1.552-9.632-1.552C14.093,144.259,0,158.416,0,175.806v41.051c0,17.39,14.158,31.547,31.547,31.547 c3.426,0,6.659-0.517,9.632-1.552v6.271c0,17.39,14.158,31.547,31.547,31.547s31.547-14.158,31.547-31.547v-25.277h184.113v25.277 c0,17.39,14.158,31.547,31.547,31.547c17.39,0,31.547-14.158,31.547-31.547v-6.271c3.103,1.034,6.335,1.552,9.632,1.552 c17.39,0,31.547-14.158,31.547-31.547v-41.051C392.469,158.352,378.311,144.259,360.921,144.259z M370.683,216.727 c0,5.301-4.331,9.632-9.632,9.632s-9.632-4.331-9.632-9.632v-41.051c0-5.301,4.331-9.632,9.632-9.632s9.632,4.331,9.632,9.632 V216.727z M329.503,252.929c0,5.301-4.331,9.632-9.632,9.632s-9.632-4.331-9.632-9.632v-113.39c0-5.301,4.331-9.632,9.632-9.632 s9.632,4.331,9.632,9.632V252.929z M288.323,205.867H104.081v-19.394h184.113v19.394H288.323z M82.295,252.929 c0,5.301-4.331,9.632-9.632,9.632c-5.301,0-9.632-4.331-9.632-9.632v-113.39c0-5.301,4.331-9.632,9.632-9.632 c5.301,0,9.632,4.331,9.632,9.632V252.929z M41.115,216.727c0,5.301-4.331,9.632-9.632,9.632s-9.632-4.331-9.632-9.632v-41.051 c0-5.301,4.331-9.632,9.632-9.632s9.632,4.331,9.632,9.632V216.727z"/> </g>
</svg>